<svg width="32" height="32" viewBox="0 0 32 32" fill="none" xmlns="http://www.w3.org/2000/svg">
<path d="M27.3463 13.4403H18.7549C16.5603 13.4403 14.7393 15.8826 14.7393 18.09V18.2309H22.5837C21.6965 21.1428 18.9883 23.2564 15.8132 23.2564C11.891 23.2564 8.71595 20.2505 8.85603 16.1644C9.22957 11.1389 13.8988 9.3542 16 9.3542H22.6304C25.572 9.3542 28 6.9589 28 4H16.1868C11.0039 4 6.52141 7.28767 4.79378 11.8904C4.28016 13.2055 4 14.6145 4 16.1174C4 22.6928 9.27626 28 15.8132 28C21.6031 28 26.4592 23.773 27.4397 18.2309C27.4864 18.043 27.5331 17.8552 27.5331 17.6204C27.5331 17.5734 27.5331 17.4795 27.5331 17.4325C27.5331 17.3855 27.5331 17.2916 27.5331 17.2446C27.5798 16.8689 27.5798 16.5401 27.5798 16.1644C27.5798 16.1644 27.5798 16.1644 27.5798 16.1174C27.6265 15.1781 27.5331 14.2857 27.3463 13.4403Z" fill="#052D69"/>
</svg>
